<mxfile host="app.diagrams.net" modified="2023-10-28T18:46:28.257Z" agent="Mozilla/5.0 (Windows NT 10.0; Win64; x64) AppleWebKit/537.36 (KHTML, like Gecko) Chrome/116.0.5845.931 YaBrowser/23.9.3.931 Yowser/2.5 Safari/537.36" etag="hpuqpjTqbvBr8EcEMxr8" version="22.0.8" type="github">
  <diagram id="C5RBs43oDa-KdzZeNtuy" name="Page-1">
    <mxGraphModel dx="1904" dy="807" grid="1" gridSize="10" guides="1" tooltips="1" connect="1" arrows="1" fold="1" page="1" pageScale="1" pageWidth="827" pageHeight="1169" math="0" shadow="0">
      <root>
        <mxCell id="WIyWlLk6GJQsqaUBKTNV-0" />
        <mxCell id="WIyWlLk6GJQsqaUBKTNV-1" parent="WIyWlLk6GJQsqaUBKTNV-0" />
        <mxCell id="qjnEa2s_MzVCoU8KYZ0G-8" value="" style="edgeStyle=orthogonalEdgeStyle;rounded=0;orthogonalLoop=1;jettySize=auto;html=1;" edge="1" parent="WIyWlLk6GJQsqaUBKTNV-1" source="qjnEa2s_MzVCoU8KYZ0G-0" target="qjnEa2s_MzVCoU8KYZ0G-3">
          <mxGeometry relative="1" as="geometry" />
        </mxCell>
        <mxCell id="qjnEa2s_MzVCoU8KYZ0G-0" value="Start" style="ellipse;whiteSpace=wrap;html=1;" vertex="1" parent="WIyWlLk6GJQsqaUBKTNV-1">
          <mxGeometry x="354" y="40" width="120" height="80" as="geometry" />
        </mxCell>
        <mxCell id="qjnEa2s_MzVCoU8KYZ0G-1" value="Finish" style="ellipse;whiteSpace=wrap;html=1;" vertex="1" parent="WIyWlLk6GJQsqaUBKTNV-1">
          <mxGeometry x="354" y="730" width="120" height="80" as="geometry" />
        </mxCell>
        <mxCell id="qjnEa2s_MzVCoU8KYZ0G-2" value="array[]&lt;br&gt;temp&lt;br&gt;size" style="rounded=0;whiteSpace=wrap;html=1;" vertex="1" parent="WIyWlLk6GJQsqaUBKTNV-1">
          <mxGeometry x="354" y="150" width="120" height="60" as="geometry" />
        </mxCell>
        <mxCell id="qjnEa2s_MzVCoU8KYZ0G-12" style="edgeStyle=orthogonalEdgeStyle;rounded=0;orthogonalLoop=1;jettySize=auto;html=1;" edge="1" parent="WIyWlLk6GJQsqaUBKTNV-1" source="qjnEa2s_MzVCoU8KYZ0G-3" target="qjnEa2s_MzVCoU8KYZ0G-4">
          <mxGeometry relative="1" as="geometry" />
        </mxCell>
        <mxCell id="qjnEa2s_MzVCoU8KYZ0G-3" value="array[]" style="shape=parallelogram;perimeter=parallelogramPerimeter;whiteSpace=wrap;html=1;fixedSize=1;" vertex="1" parent="WIyWlLk6GJQsqaUBKTNV-1">
          <mxGeometry x="354" y="230" width="120" height="60" as="geometry" />
        </mxCell>
        <mxCell id="qjnEa2s_MzVCoU8KYZ0G-13" style="edgeStyle=orthogonalEdgeStyle;rounded=0;orthogonalLoop=1;jettySize=auto;html=1;entryX=0.5;entryY=0;entryDx=0;entryDy=0;" edge="1" parent="WIyWlLk6GJQsqaUBKTNV-1" source="qjnEa2s_MzVCoU8KYZ0G-4" target="qjnEa2s_MzVCoU8KYZ0G-5">
          <mxGeometry relative="1" as="geometry" />
        </mxCell>
        <mxCell id="qjnEa2s_MzVCoU8KYZ0G-4" value="size = length(array[])" style="rounded=0;whiteSpace=wrap;html=1;" vertex="1" parent="WIyWlLk6GJQsqaUBKTNV-1">
          <mxGeometry x="354" y="310" width="120" height="60" as="geometry" />
        </mxCell>
        <mxCell id="qjnEa2s_MzVCoU8KYZ0G-14" style="edgeStyle=orthogonalEdgeStyle;rounded=0;orthogonalLoop=1;jettySize=auto;html=1;entryX=0.5;entryY=0;entryDx=0;entryDy=0;" edge="1" parent="WIyWlLk6GJQsqaUBKTNV-1" source="qjnEa2s_MzVCoU8KYZ0G-5" target="qjnEa2s_MzVCoU8KYZ0G-6">
          <mxGeometry relative="1" as="geometry" />
        </mxCell>
        <mxCell id="qjnEa2s_MzVCoU8KYZ0G-5" value="for (i = 0; i &amp;lt; size/2; i++)" style="shape=hexagon;perimeter=hexagonPerimeter2;whiteSpace=wrap;html=1;fixedSize=1;" vertex="1" parent="WIyWlLk6GJQsqaUBKTNV-1">
          <mxGeometry x="336" y="400" width="156" height="80" as="geometry" />
        </mxCell>
        <mxCell id="qjnEa2s_MzVCoU8KYZ0G-15" style="edgeStyle=orthogonalEdgeStyle;rounded=0;orthogonalLoop=1;jettySize=auto;html=1;exitX=0.5;exitY=1;exitDx=0;exitDy=0;entryX=0.5;entryY=0;entryDx=0;entryDy=0;" edge="1" parent="WIyWlLk6GJQsqaUBKTNV-1" source="qjnEa2s_MzVCoU8KYZ0G-6" target="qjnEa2s_MzVCoU8KYZ0G-7">
          <mxGeometry relative="1" as="geometry" />
        </mxCell>
        <mxCell id="qjnEa2s_MzVCoU8KYZ0G-6" value="temp = array[i]&lt;br&gt;array[i] = array[size - 1 - i]&lt;br&gt;array[size - 1 - i] = temp" style="rounded=0;whiteSpace=wrap;html=1;" vertex="1" parent="WIyWlLk6GJQsqaUBKTNV-1">
          <mxGeometry x="341" y="520" width="146" height="60" as="geometry" />
        </mxCell>
        <mxCell id="qjnEa2s_MzVCoU8KYZ0G-16" style="edgeStyle=orthogonalEdgeStyle;rounded=0;orthogonalLoop=1;jettySize=auto;html=1;entryX=0.5;entryY=0;entryDx=0;entryDy=0;" edge="1" parent="WIyWlLk6GJQsqaUBKTNV-1" source="qjnEa2s_MzVCoU8KYZ0G-7" target="qjnEa2s_MzVCoU8KYZ0G-1">
          <mxGeometry relative="1" as="geometry" />
        </mxCell>
        <mxCell id="qjnEa2s_MzVCoU8KYZ0G-7" value="array[]" style="shape=document;whiteSpace=wrap;html=1;boundedLbl=1;" vertex="1" parent="WIyWlLk6GJQsqaUBKTNV-1">
          <mxGeometry x="354" y="620" width="120" height="80" as="geometry" />
        </mxCell>
      </root>
    </mxGraphModel>
  </diagram>
</mxfile>
